<svg width="40" height="29" viewBox="0 0 40 29" fill="none" xmlns="http://www.w3.org/2000/svg">
<mask id="mask0_311_43" style="mask-type:luminance" maskUnits="userSpaceOnUse" x="0" y="0" width="40" height="29">
<path d="M37.1429 0H2.85714C1.27919 0 0 1.27919 0 2.85714V25.7143C0 27.2922 1.27919 28.5714 2.85714 28.5714H37.1429C38.7208 28.5714 40 27.2922 40 25.7143V2.85714C40 1.27919 38.7208 0 37.1429 0Z" fill="white"/>
</mask>
<g mask="url(#mask0_311_43)">
<path d="M37.1429 0H2.85714C1.27919 0 0 1.27919 0 2.85714V25.7143C0 27.2922 1.27919 28.5714 2.85714 28.5714H37.1429C38.7208 28.5714 40 27.2922 40 25.7143V2.85714C40 1.27919 38.7208 0 37.1429 0Z" fill="white"/>
<mask id="mask1_311_43" style="mask-type:alpha" maskUnits="userSpaceOnUse" x="0" y="0" width="40" height="29">
<path d="M37.1429 0H2.85714C1.27919 0 0 1.27919 0 2.85714V25.7143C0 27.2922 1.27919 28.5714 2.85714 28.5714H37.1429C38.7208 28.5714 40 27.2922 40 25.7143V2.85714C40 1.27919 38.7208 0 37.1429 0Z" fill="white"/>
</mask>
<g mask="url(#mask1_311_43)">
<path fill-rule="evenodd" clip-rule="evenodd" d="M40 0H0V1.90476H40V0ZM40 3.80953H0V5.71429H40V3.80953ZM0 7.61904H40V9.52381H0V7.61904ZM40 11.4286H0V13.3333H40V11.4286ZM0 15.2381H40V17.1429H0V15.2381ZM40 19.0476H0V20.9524H40V19.0476ZM0 22.8571H40V24.7619H0V22.8571ZM40 26.6667H0V28.5714H40V26.6667Z" fill="#D02F44"/>
<path d="M17.1429 0H0V13.3333H17.1429V0Z" fill="#46467F"/>
<g filter="url(#filter0_d_311_43)">
<path fill-rule="evenodd" clip-rule="evenodd" d="M3.80907 2.85716C3.80907 3.38314 3.38267 3.80954 2.85668 3.80954C2.3307 3.80954 1.9043 3.38314 1.9043 2.85716C1.9043 2.33119 2.3307 1.90479 2.85668 1.90479C3.38267 1.90479 3.80907 2.33119 3.80907 2.85716ZM7.61858 2.85716C7.61858 3.38314 7.1922 3.80954 6.66621 3.80954C6.14023 3.80954 5.71383 3.38314 5.71383 2.85716C5.71383 2.33119 6.14023 1.90479 6.66621 1.90479C7.1922 1.90479 7.61858 2.33119 7.61858 2.85716ZM10.4757 3.80954C11.0017 3.80954 11.4281 3.38314 11.4281 2.85716C11.4281 2.33119 11.0017 1.90479 10.4757 1.90479C9.94974 1.90479 9.52335 2.33119 9.52335 2.85716C9.52335 3.38314 9.94974 3.80954 10.4757 3.80954ZM15.2376 2.85716C15.2376 3.38314 14.8113 3.80954 14.2853 3.80954C13.7593 3.80954 13.3329 3.38314 13.3329 2.85716C13.3329 2.33119 13.7593 1.90479 14.2853 1.90479C14.8113 1.90479 15.2376 2.33119 15.2376 2.85716ZM4.76144 5.7143C5.28743 5.7143 5.71383 5.28791 5.71383 4.76193C5.71383 4.23594 5.28743 3.80954 4.76144 3.80954C4.23545 3.80954 3.80907 4.23594 3.80907 4.76193C3.80907 5.28791 4.23545 5.7143 4.76144 5.7143ZM9.52335 4.76193C9.52335 5.28791 9.09695 5.7143 8.57097 5.7143C8.04498 5.7143 7.61858 5.28791 7.61858 4.76193C7.61858 4.23594 8.04498 3.80954 8.57097 3.80954C9.09695 3.80954 9.52335 4.23594 9.52335 4.76193ZM12.3805 5.7143C12.9065 5.7143 13.3329 5.28791 13.3329 4.76193C13.3329 4.23594 12.9065 3.80954 12.3805 3.80954C11.8545 3.80954 11.4281 4.23594 11.4281 4.76193C11.4281 5.28791 11.8545 5.7143 12.3805 5.7143ZM15.2376 6.66668C15.2376 7.19267 14.8113 7.61907 14.2853 7.61907C13.7593 7.61907 13.3329 7.19267 13.3329 6.66668C13.3329 6.1407 13.7593 5.7143 14.2853 5.7143C14.8113 5.7143 15.2376 6.1407 15.2376 6.66668ZM10.4757 7.61907C11.0017 7.61907 11.4281 7.19267 11.4281 6.66668C11.4281 6.1407 11.0017 5.7143 10.4757 5.7143C9.94974 5.7143 9.52335 6.1407 9.52335 6.66668C9.52335 7.19267 9.94974 7.61907 10.4757 7.61907ZM7.61858 6.66668C7.61858 7.19267 7.1922 7.61907 6.66621 7.61907C6.14023 7.61907 5.71383 7.19267 5.71383 6.66668C5.71383 6.1407 6.14023 5.7143 6.66621 5.7143C7.1922 5.7143 7.61858 6.1407 7.61858 6.66668ZM2.85668 7.61907C3.38267 7.61907 3.80907 7.19267 3.80907 6.66668C3.80907 6.1407 3.38267 5.7143 2.85668 5.7143C2.3307 5.7143 1.9043 6.1407 1.9043 6.66668C1.9043 7.19267 2.3307 7.61907 2.85668 7.61907ZM5.71383 8.57144C5.71383 9.09744 5.28743 9.52383 4.76144 9.52383C4.23545 9.52383 3.80907 9.09744 3.80907 8.57144C3.80907 8.04546 4.23545 7.61907 4.76144 7.61907C5.28743 7.61907 5.71383 8.04546 5.71383 8.57144ZM8.57097 9.52383C9.09695 9.52383 9.52335 9.09744 9.52335 8.57144C9.52335 8.04546 9.09695 7.61907 8.57097 7.61907C8.04498 7.61907 7.61858 8.04546 7.61858 8.57144C7.61858 9.09744 8.04498 9.52383 8.57097 9.52383ZM13.3329 8.57144C13.3329 9.09744 12.9065 9.52383 12.3805 9.52383C11.8545 9.52383 11.4281 9.09744 11.4281 8.57144C11.4281 8.04546 11.8545 7.61907 12.3805 7.61907C12.9065 7.61907 13.3329 8.04546 13.3329 8.57144ZM14.2853 11.4286C14.8113 11.4286 15.2376 11.0022 15.2376 10.4762C15.2376 9.95023 14.8113 9.52383 14.2853 9.52383C13.7593 9.52383 13.3329 9.95023 13.3329 10.4762C13.3329 11.0022 13.7593 11.4286 14.2853 11.4286ZM11.4281 10.4762C11.4281 11.0022 11.0017 11.4286 10.4757 11.4286C9.94974 11.4286 9.52335 11.0022 9.52335 10.4762C9.52335 9.95023 9.94974 9.52383 10.4757 9.52383C11.0017 9.52383 11.4281 9.95023 11.4281 10.4762ZM6.66621 11.4286C7.1922 11.4286 7.61858 11.0022 7.61858 10.4762C7.61858 9.95023 7.1922 9.52383 6.66621 9.52383C6.14023 9.52383 5.71383 9.95023 5.71383 10.4762C5.71383 11.0022 6.14023 11.4286 6.66621 11.4286ZM3.80907 10.4762C3.80907 11.0022 3.38267 11.4286 2.85668 11.4286C2.3307 11.4286 1.9043 11.0022 1.9043 10.4762C1.9043 9.95023 2.3307 9.52383 2.85668 9.52383C3.38267 9.52383 3.80907 9.95023 3.80907 10.4762Z" fill="url(#paint0_linear_311_43)"/>
</g>
</g>
</g>
<defs>
<filter id="filter0_d_311_43" x="1.9043" y="1.90479" width="13.333" height="38.0952" filterUnits="userSpaceOnUse" color-interpolation-filters="sRGB">
<feFlood flood-opacity="0" result="BackgroundImageFix"/>
<feColorMatrix in="SourceAlpha" type="matrix" values="0 0 0 0 0 0 0 0 0 0 0 0 0 0 0 0 0 0 127 0" result="hardAlpha"/>
<feOffset dy="28.5714"/>
<feColorMatrix type="matrix" values="0 0 0 0 0 0 0 0 0 0 0 0 0 0 0 0 0 0 0.06 0"/>
<feBlend mode="normal" in2="BackgroundImageFix" result="effect1_dropShadow_311_43"/>
<feBlend mode="normal" in="SourceGraphic" in2="effect1_dropShadow_311_43" result="shape"/>
</filter>
<linearGradient id="paint0_linear_311_43" x1="1.9043" y1="1.90479" x2="1.9043" y2="11.4286" gradientUnits="userSpaceOnUse">
<stop stop-color="white"/>
<stop offset="1" stop-color="#F0F0F0"/>
</linearGradient>
</defs>
</svg>
