<svg width="682" height="328" viewBox="0 0 682 328" fill="none" xmlns="http://www.w3.org/2000/svg">
<path d="M6.87092 292.7L104.371 251.7L183.124 0.445312H84.1399C84.1399 0.445312 1.59592 254.668 0.817922 269.611C0.618638 273.531 1.04841 277.457 2.09092 281.241C3.12035 285.273 4.73053 289.133 6.87092 292.7Z" fill="white"/>
<path d="M678.416 36.5171L574.121 81.4541L524.239 241.717C516.777 263.933 501.602 271.917 484.921 271.917H366.616L405.665 153.974L263.828 215.034L246.089 271.917H131.702L22.7241 318.832C29.5611 325.532 45.2902 327.8 57.8452 327.8H250.472C260.922 327.801 271.162 324.872 280.031 319.345C288.899 313.817 296.039 305.913 300.64 296.531L289.216 327.799H546.104C574.783 327.799 603.942 330.636 620.829 271.916C620.829 271.916 679.995 68.6401 680.446 62.3051C681.755 57.8911 682.491 51.6541 681.616 47.6171C680.805 43.9111 680.172 39.8821 678.416 36.5171Z" fill="#878382"/>
<path d="M418.394 115.539L437.816 56.875H554.662L658.706 12.085L657.468 11.006C651.942 6.19103 643.574 2.57203 638.242 1.28603C634.895 0.388938 631.44 -0.0441116 627.975 -0.000974298H330.911L275.711 176.966L418.394 115.539Z" fill="white"/>
</svg>
